<?xml version="1.0" standalone="no"?>
<!DOCTYPE svg PUBLIC "-//W3C//DTD SVG 20010904//EN"
 "http://www.w3.org/TR/2001/REC-SVG-20010904/DTD/svg10.dtd">
<svg version="1.0" xmlns="http://www.w3.org/2000/svg"
 width="30.000000pt" height="30.000000pt" viewBox="0 0 30.000000 30.000000"
 preserveAspectRatio="xMidYMid meet">
<metadata>
Created by potrace 1.16, written by Peter Selinger 2001-2019
</metadata>
<g transform="translate(0.000000,30.000000) scale(0.005859,-0.005859)"
fill="#000000" stroke="none">
<path d="M2235 4344 c-475 -64 -938 -270 -1345 -597 -349 -280 -669 -669 -856
-1039 -30 -60 -34 -76 -34 -148 0 -74 3 -87 40 -159 324 -646 947 -1218 1595
-1468 312 -120 591 -173 915 -173 286 0 492 32 752 116 678 220 1294 731 1688
1398 138 234 148 286 76 432 -132 270 -345 563 -586 804 -466 468 -1022 753
-1628 835 -140 19 -476 19 -617 -1z m583 -409 c594 -78 1137 -410 1587 -970
60 -74 216 -304 250 -368 l20 -38 -24 -42 c-40 -72 -187 -289 -246 -362 -447
-559 -985 -888 -1589 -970 -140 -19 -390 -19 -534 0 -601 79 -1154 420 -1597
985 -79 101 -186 259 -236 348 l-24 42 24 43 c39 71 187 288 246 362 443 554
983 885 1580 970 127 18 408 18 543 0z"/>
<path d="M2351 3545 c-155 -35 -260 -80 -380 -166 -187 -131 -318 -315 -388
-544 -25 -84 -27 -102 -27 -275 0 -173 2 -191 27 -275 72 -233 206 -419 400
-553 93 -64 173 -102 292 -139 84 -25 102 -27 275 -27 173 0 191 2 275 27 233
72 419 206 553 400 64 93 102 173 139 292 25 84 27 102 27 275 0 173 -2 191
-27 275 -37 119 -75 199 -139 292 -134 194 -322 330 -553 399 -78 23 -112 27
-250 30 -114 3 -178 -1 -224 -11z m344 -410 c105 -27 183 -73 270 -160 124
-123 175 -245 175 -415 0 -170 -51 -292 -175 -415 -123 -124 -245 -175 -415
-175 -170 0 -292 51 -415 175 -124 123 -175 245 -175 415 0 170 51 292 175
415 85 86 164 133 265 159 73 19 221 20 295 1z"/>
</g>
</svg>
