<?xml version="1.0" standalone="no"?>
<!DOCTYPE svg PUBLIC "-//W3C//DTD SVG 20010904//EN"
 "http://www.w3.org/TR/2001/REC-SVG-20010904/DTD/svg10.dtd">
<svg version="1.0" xmlns="http://www.w3.org/2000/svg"
 width="30.000000pt" height="30.000000pt" viewBox="0 0 30.000000 30.000000"
 preserveAspectRatio="xMidYMid meet">
<metadata>
Created by potrace 1.16, written by Peter Selinger 2001-2019
</metadata>
<g transform="translate(0.000000,30.000000) scale(0.005859,-0.005859)"
fill="#000000" stroke="none">
<path d="M2285 4003 c-452 -48 -887 -203 -1254 -448 -203 -135 -277 -199 -664
-584 l-367 -366 0 -50 0 -50 357 -355 c197 -196 404 -393 461 -438 402 -321
840 -512 1355 -590 159 -24 615 -24 774 0 515 78 953 269 1355 590 57 45 264
242 461 438 l357 355 0 50 0 50 -367 366 c-387 384 -460 449 -663 584 -328
219 -676 354 -1090 426 -104 18 -172 22 -400 24 -151 2 -293 1 -315 -2z m543
-183 c495 -54 963 -246 1352 -556 47 -37 230 -212 408 -388 l323 -321 -313
-311 c-303 -300 -437 -418 -595 -525 l-76 -51 28 43 c78 127 166 352 199 509
21 102 40 309 32 352 -9 48 -38 73 -88 73 -66 0 -83 -30 -92 -156 -26 -371
-159 -676 -409 -936 l-99 -103 -137 -44 c-747 -243 -1559 -134 -2221 298 -169
111 -299 224 -618 540 l-313 310 278 279 c288 289 434 422 569 518 144 103
140 103 83 2 -110 -198 -180 -426 -201 -656 -12 -142 -9 -176 22 -207 26 -26
90 -27 121 -2 20 17 24 34 36 166 23 244 85 443 199 637 95 162 259 344 342
380 120 52 402 120 592 144 130 16 448 19 578 5z"/>
<path d="M2360 3481 c-284 -62 -523 -250 -649 -511 -48 -98 -53 -146 -18 -178
12 -12 122 -67 242 -123 121 -55 223 -104 227 -107 4 -4 -95 -54 -220 -111
-125 -58 -237 -114 -249 -124 -33 -30 -30 -83 11 -171 152 -330 491 -546 856
-546 225 0 463 89 629 237 132 116 250 313 292 488 31 125 31 314 1 438 -83
338 -325 593 -659 693 -120 36 -335 43 -463 15z m376 -181 c430 -110 681 -543
558 -961 -23 -77 -86 -195 -142 -264 -117 -145 -294 -246 -485 -276 -288 -45
-613 111 -763 367 -15 25 -23 49 -18 53 5 5 133 66 284 135 151 70 283 136
293 147 17 21 23 73 11 104 -8 19 -79 55 -374 190 -118 54 -217 100 -219 102
-8 6 67 118 118 174 183 203 479 295 737 229z"/>
</g>
</svg>
